{
	"asset":{
		"version":"2.0",
		"generator":"Created using the official Cinema 4D glTF Exporter. Previous Build: 1.000x279138."
	},
	"scenes":[{
		"nodes":[0]
	}],
	"nodes":[{
		"name":"Sphere",
		"translation":[-21.149667739868165,
		82.54930114746094,
		27.42009735107422],
		"rotation":[0.0,
		0.0,
		0.0,
		-1.0],
		"scale":[1.0,
		1.0,
		-1.0],
		"mesh":0
	}],
	"meshes":[{
		"primitives":[{
			"targets":[{
				"POSITION":3
			},
			{
				"POSITION":4
			},
			{
				"POSITION":5
			},
			{
				"POSITION":6
			},
			{
				"POSITION":7
			},
			{
				"POSITION":8
			},
			{
				"POSITION":9
			},
			{
				"POSITION":10
			}],
			"attributes":{
				"POSITION":1,
				"NORMAL":2
			},
			"indices":0,
			"material":0
		}],
		"weights":[0.0,
		0.0,
		0.0,
		0.0,
		0.0,
		0.0,
		0.0,
		0.0]
	}],
	"accessors":[{
		"bufferView":0,
		"type":"SCALAR",
		"min":[0],
		"componentType":5123,
		"count":64824,
		"byteOffset":0,
		"max":[10805]
	},
	{
		"bufferView":1,
		"type":"VEC3",
		"min":[-414.93231201171877,
		-400.26849365234377,
		-570.08203125],
		"componentType":5126,
		"count":10806,
		"byteOffset":0,
		"max":[473.3944091796875,
		349.4718322753906,
		530.4059448242188]
	},
	{
		"bufferView":1,
		"type":"VEC3",
		"min":[-0.9999575614929199,
		-0.9998080730438232,
		-0.9996218085289002],
		"componentType":5126,
		"count":10806,
		"byteOffset":12,
		"max":[0.9987703561782837,
		0.9999561309814453,
		0.9999626278877258]
	},
	{
		"bufferView":2,
		"type":"VEC3",
		"min":[-261.4977722167969,
		-75.14505004882813,
		-182.95196533203126],
		"componentType":5126,
		"count":10806,
		"byteOffset":0,
		"max":[94.1900405883789,
		176.38174438476563,
		133.6773223876953]
	},
	{
		"bufferView":3,
		"type":"VEC3",
		"min":[-217.36050415039063,
		-193.19577026367188,
		-180.811767578125],
		"componentType":5126,
		"count":10806,
		"byteOffset":0,
		"max":[112.74059295654297,
		226.53382873535157,
		130.8582305908203]
	},
	{
		"bufferView":4,
		"type":"VEC3",
		"min":[-153.1923828125,
		-177.11703491210938,
		-145.35125732421876],
		"componentType":5126,
		"count":10806,
		"byteOffset":0,
		"max":[145.655517578125,
		179.8990936279297,
		156.56617736816407]
	},
	{
		"bufferView":5,
		"type":"VEC3",
		"min":[-190.3010711669922,
		-138.1895294189453,
		-161.18118286132813],
		"componentType":5126,
		"count":10806,
		"byteOffset":0,
		"max":[116.03547668457031,
		138.13360595703126,
		151.89791870117188]
	},
	{
		"bufferView":6,
		"type":"VEC3",
		"min":[-143.37899780273438,
		-95.95271301269531,
		-159.48985290527345],
		"componentType":5126,
		"count":10806,
		"byteOffset":0,
		"max":[139.00559997558595,
		101.96247100830078,
		178.7173309326172]
	},
	{
		"bufferView":7,
		"type":"VEC3",
		"min":[-80.67037200927735,
		-92.26158142089844,
		-56.30263900756836],
		"componentType":5126,
		"count":10806,
		"byteOffset":0,
		"max":[114.21926879882813,
		62.62646484375,
		99.90728759765625]
	},
	{
		"bufferView":8,
		"type":"VEC3",
		"min":[-22.843854904174806,
		-12.52529239654541,
		-19.981456756591798],
		"componentType":5126,
		"count":10806,
		"byteOffset":0,
		"max":[16.134075164794923,
		18.452316284179689,
		11.260527610778809]
	},
	{
		"bufferView":9,
		"type":"VEC3",
		"min":[-261.484130859375,
		-76.08979034423828,
		-179.3277130126953],
		"componentType":5126,
		"count":10806,
		"byteOffset":0,
		"max":[98.85694122314453,
		166.976806640625,
		133.541748046875]
	},
	{
		"bufferView":10,
		"type":"SCALAR",
		"min":[0.0],
		"componentType":5126,
		"count":8,
		"byteOffset":0,
		"max":[1.399999976158142]
	},
	{
		"bufferView":10,
		"type":"SCALAR",
		"min":[0.0],
		"componentType":5126,
		"count":64,
		"byteOffset":32,
		"max":[1.0]
	}],
	"bufferViews":[{
		"buffer":0,
		"byteOffset":0,
		"byteLength":129648,
		"target":34963
	},
	{
		"buffer":0,
		"byteOffset":129648,
		"byteLength":259344,
		"target":34962,
		"byteStride":24
	},
	{
		"buffer":0,
		"byteOffset":388992,
		"byteLength":129672,
		"target":34962
	},
	{
		"buffer":0,
		"byteOffset":518664,
		"byteLength":129672,
		"target":34962
	},
	{
		"buffer":0,
		"byteOffset":648336,
		"byteLength":129672,
		"target":34962
	},
	{
		"buffer":0,
		"byteOffset":778008,
		"byteLength":129672,
		"target":34962
	},
	{
		"buffer":0,
		"byteOffset":907680,
		"byteLength":129672,
		"target":34962
	},
	{
		"buffer":0,
		"byteOffset":1037352,
		"byteLength":129672,
		"target":34962
	},
	{
		"buffer":0,
		"byteOffset":1167024,
		"byteLength":129672,
		"target":34962
	},
	{
		"buffer":0,
		"byteOffset":1296696,
		"byteLength":129672,
		"target":34962
	},
	{
		"buffer":1,
		"byteOffset":0,
		"byteLength":288
	}],
	"buffers":[{
		"uri":"data:application/octet-stream;base64,",
		"byteLength":1426368
	},
	{
		"uri":"data:application/octet-stream;base64,",
		"byteLength":288
	}],
	"materials":[{
		"pbrMetallicRoughness":{
			"baseColorFactor":[0.21459999999999999,
			0.58,
			0.39121000000000019,
			0.49],
			"metallicFactor":1.0,
			"roughnessFactor":0.3
		},
		"emissiveFactor":[0.0,
		0.0,
		0.0],
		"alphaMode":"BLEND",
		"doubleSided":false
	}],
	"animations":[{
		"samplers":[{
			"input":11,
			"interpolation":"LINEAR",
			"output":12
		}],
		"channels":[{
			"sampler":0,
			"target":{
				"node":0,
				"path":"weights"
			}
		}]
	}]
}