{
	"asset":{
		"version":"2.0",
		"generator":"Created using the official Cinema 4D glTF Exporter. Previous Build: 1.000x279138."
	},
	"scenes":[{
		"nodes":[0]
	}],
	"nodes":[{
		"name":"Sphere",
		"translation":[0.0,
		0.0,
		0.0],
		"rotation":[0.0,
		0.0,
		0.0,
		-1.0],
		"scale":[0.8880000114440918,
		0.8880000114440918,
		-0.8880000114440918],
		"mesh":0
	}],
	"meshes":[{
		"primitives":[{
			"attributes":{
				"POSITION":1,
				"NORMAL":2
			},
			"indices":0,
			"material":0
		}]
	}],
	"accessors":[{
		"bufferView":0,
		"type":"SCALAR",
		"min":[0],
		"componentType":5123,
		"count":185760,
		"byteOffset":0,
		"max":[39535]
	},
	{
		"bufferView":1,
		"type":"VEC3",
		"min":[-277.55126953125,
		-369.0517578125,
		-187.02853393554688],
		"componentType":5126,
		"count":39536,
		"byteOffset":0,
		"max":[269.760498046875,
		237.045166015625,
		187.13145446777345]
	},
	{
		"bufferView":1,
		"type":"VEC3",
		"min":[-0.9999987483024597,
		-0.9999745488166809,
		-0.9999986290931702],
		"componentType":5126,
		"count":39536,
		"byteOffset":12,
		"max":[0.9999884366989136,
		0.9999743103981018,
		0.9999985694885254]
	}],
	"bufferViews":[{
		"buffer":0,
		"byteOffset":0,
		"byteLength":371520,
		"target":34963
	},
	{
		"buffer":0,
		"byteOffset":371520,
		"byteLength":948864,
		"target":34962,
		"byteStride":24
	}],
	"buffers":[{
		"uri":"data:application/octet-stream;base64,",
		"byteLength":1320384
	}],
	"materials":[{
		"pbrMetallicRoughness":{
			"baseColorFactor":[1.0,
			1.0,
			1.0,
			1.0],
			"metallicFactor":1.0,
			"roughnessFactor":1.0
		},
		"emissiveFactor":[0.0,
		0.0,
		0.0],
		"alphaMode":"OPAQUE",
		"doubleSided":true
	}]
}